<?xml version="1.0" encoding="utf-8"?>
<!-- Generator: Adobe Illustrator 27.5.0, SVG Export Plug-In . SVG Version: 6.00 Build 0)  -->
<svg version="1.1" id="Capa_1" xmlns="http://www.w3.org/2000/svg" xmlns:xlink="http://www.w3.org/1999/xlink" x="0px" y="0px"
	 viewBox="0 0 2122 2122" style="enable-background:new 0 0 2122 2122;" xml:space="preserve">
<path style="fill:#E63951;" d="M947.593,368.419c-40.598-31.42-90.407-50.451-140.436-47.048
	c-59.551,4.05-117.467,43.381-136.938,101.76c-19.988,59.932,2.692,128.857,43.604,176.63
	c39.773,46.442,94.261,76.169,149.356,100.535c45.95-0.983,91.581-10.886,132.563-30.144
	c51.115-24.018,94.144-63.11,119.474-113.923c31.784-63.759,26.904-139.794-12.93-199.109
	c-17.18-25.582-41.364-45.057-69.373-57.099C999.723,314.649,970.475,338.947,947.593,368.419z"/>
<path style="fill:#CF2C48;" d="M1102.286,357.12c39.833,59.315,44.714,135.349,12.93,199.109
	c-25.33,50.813-68.359,89.905-119.474,113.923c-40.981,19.258-86.613,29.16-132.563,30.144c1.579,0.698,3.156,1.408,4.735,2.098
	c42.302,18.471,88.157,35.56,129.164,56.724c34.437-30.719,74.583-58.702,110.944-87.136
	c48.734-38.111,95.927-81.346,123.636-137.81c27.71-56.465,32.49-128.868-1.81-181.924c-33.412-51.68-99.304-75.33-157.985-64.404
	c-13.466,2.507-26.478,6.681-38.951,12.178C1060.922,312.063,1085.106,331.538,1102.286,357.12z"/>
<path style="fill:#77CCF4;" d="M1458.869,910.049c56.59-3.854,111.104-24.762,153.325-63.087
	c52.979-48.09,76.116-121.029,60.449-191.055c-6.667-29.799-21.888-56.517-43.256-77.854c-36.617,1.383-73.108,13.476-105.46,32.84
	c-26.432-44.008-65.943-79.813-113.798-94.793c-56.963-17.831-125.202-2.192-164.526,45.144
	c-40.372,48.597-44.242,121.054-23.45,180.415c20.414,58.277,60.995,106.117,103.964,149.138
	C1368.817,906.042,1414.299,913.084,1458.869,910.049z"/>
<path style="fill:#7EBA28;" d="M981.497,1155.604c55.197-16.546,104.503-49.52,137.712-96.986
	c41.67-59.559,48.188-137.024,16.917-202.877c-12.637-26.612-32.256-48.782-56.436-64.938
	c-36.991,8.966-71.418,29.373-99.751,56.441c-35.519-37.064-81.977-63.234-131.96-67.248c-59.497-4.778-122.58,25.58-150.449,80.449
	c-28.611,56.329-16.345,127.844,17.074,181.129c33.419,53.285,84.842,91.39,137.268,124.239c0.846,0.53,1.716,1.055,2.564,1.584
	C897.333,1171.479,940.807,1167.802,981.497,1155.604z"/>
<path style="fill:#75AA2C;" d="M1236.449,1053.083c35.736-51.76,51.142-122.666,25.042-180.201
	c-25.423-56.043-87.107-89.153-146.756-87.003c-11.863,0.428-23.573,2.143-35.046,4.924c24.18,16.156,43.8,38.327,56.436,64.938
	c31.271,65.853,24.754,143.318-16.917,202.877c-33.209,47.466-82.515,80.44-137.712,96.986
	c-40.69,12.198-84.164,15.875-127.062,11.793c38.422,23.944,80.192,47.173,116.821,73.571
	c38.591-25.304,82.425-47.059,122.582-69.819C1147.661,1140.644,1200.714,1104.842,1236.449,1053.083z"/>
<path style="fill:#F8BCA8;" d="M1624.397,959.295c-10.72-2.561-21.486,4.053-24.046,14.773
	c-17.774,74.499-48.345,146.248-78.891,219.304c-30.499,73.056-60.979,147.44-77.401,227.529
	c-9.482,46.297-13.568,92.689-13.567,138.844c0.028,120.725,27.835,239.782,60.675,353.155c3.068,10.586,14.137,16.68,24.723,13.611
	c10.586-3.069,16.68-14.138,13.612-24.724h0c-32.481-111.959-59.126-227.51-59.098-342.042
	c0.001-43.805,3.874-87.468,12.756-130.837c15.391-75.271,44.665-147.294,75.127-220.151
	c30.416-72.859,62.014-146.528,80.884-225.416C1641.731,972.622,1635.117,961.856,1624.397,959.295z"/>
<path style="fill:#36BDE7;" d="M1792.818,698.227c-12.386-60.281-65.208-106.225-123.854-117.334
	c-13.083-2.478-26.338-3.34-39.577-2.84c21.368,21.337,36.589,48.054,43.256,77.854c15.667,70.026-7.47,142.965-60.449,191.055
	c-42.221,38.325-96.735,59.233-153.325,63.087c-44.57,3.035-90.052-4.007-132.752-19.252c0.799,0.8,1.593,1.61,2.393,2.407
	c32.718,32.559,69.248,65.121,99.784,99.721c43.235-16.133,90.799-27.644,134.998-40.948c59.24-17.833,118.903-41,165.21-83.564
	C1774.81,825.848,1805.532,760.113,1792.818,698.227z"/>
<path style="fill:#F8BCA8;" d="M1022.609,1522.632c-35.237,21.265-72.088,39.863-110.127,55.545
	c-76.483,31.529-156.358,49-239.3,58.19c-26.805,2.985-58.464,7.063-89.019,7.05c-22.695,0.021-44.641-2.284-63.047-8.304
	c-9.216-2.999-17.546-6.886-24.874-11.778c-7.333-4.904-13.694-10.783-19.155-18.097c-9.123-12.196-14.741-27.334-15.328-42.074
	l-0.001-0.046c-0.021-0.46-0.031-0.945-0.031-1.46c0.001-3.435,0.479-7.004,1.379-10.976c1.33-5.95,3.691-12.724,6.122-20.597
	c2.395-7.862,4.864-16.924,5.408-27.386l0.003-0.041c0.05-1.031,0.078-2.077,0.078-3.14c0.028-8.209-1.75-15.866-4.462-22.242
	c-2.022-4.799-4.48-8.895-6.892-12.44c-3.642-5.315-7.147-9.477-9.859-13.158c-2.74-3.683-4.694-6.786-5.996-9.915l-0.003-0.008
	c-0.468-1.184-0.565-1.792-0.591-3.038c-0.036-1.673,0.506-4.666,1.647-9.265c1.061-4.566,2.716-10.737,2.751-18.621
	c0.026-5.727-1.046-12.314-3.753-18.688c-3.587-8.444-7.516-14.655-9.701-19.046c-1.12-2.191-1.832-3.889-2.219-5.15
	c-0.387-1.278-0.5-2.088-0.509-3.015c0.014-1.078,0.156-2.494,1.135-5.083c1.747-4.713,5.409-10.778,9.42-18.545
	c1.978-3.901,4.01-8.287,5.613-13.343c1.598-5.041,2.735-10.806,2.73-17.043c0.002-3.528-0.361-7.195-1.138-10.882
	c-1.169-5.575-3.174-10.807-5.794-15.463c-4.594-8.187-10.902-14.458-17.431-19.281c-9.85-7.234-20.335-11.666-29.872-15.418
	c-9.519-3.682-18.25-6.69-23.9-9.436c-6.413-3.076-11.461-6.308-15.396-9.526c-5.905-4.856-9.351-9.556-11.607-14.444
	c-2.225-4.895-3.303-10.198-3.316-16.48c-0.023-8.401,2.122-18.485,6.157-29.381c6.005-16.36,16.119-34.304,26.916-51.424
	c10.801-17.182,22.185-33.482,30.895-47.978c11.868-19.794,22.804-40.139,32.779-60.937c3.728-7.811,9.606-18.177,15.053-29.395
	c2.727-5.634,5.359-11.524,7.571-17.668c2.204-6.149,4.015-12.553,4.89-19.391l0.003-0.02c0.39-3.107,0.55-6.175,0.55-9.202
	c-0.045-12.276-2.462-23.887-4.768-34.689c-2.352-10.724-4.657-20.68-5.331-27.718c-1.941-19.289-2.906-38.681-2.906-58.076
	c0-2.643,0.018-5.286,0.054-7.932c1.716-127.497,46.171-252.603,125.443-352.464c77.453-97.624,186.212-169.098,306.701-200.79
	c48.195-12.686,97.939-18.993,147.671-18.993c79.552-0.004,159.052,16.145,232.116,47.994
	c113.7,49.535,210.207,136.11,271.96,243.677c5.488,9.557,17.686,12.856,27.244,7.367c9.557-5.49,12.856-17.687,7.368-27.245h0
	c-66.111-115.076-168.931-207.326-290.624-260.388c-78.257-34.105-163.121-51.316-248.063-51.319
	c-53.105,0-106.247,6.731-157.831,20.307c-129.025,33.98-244.929,110.179-327.806,214.577
	c-84.813,106.893-132.22,240.332-134.087,376.734c-0.038,2.822-0.058,5.647-0.058,8.473c0,20.719,1.03,41.442,3.105,62.069
	c1.151,11.131,3.845,21.957,6.038,32.184c2.237,10.148,3.907,19.658,3.862,26.231c0,1.595-0.087,3.014-0.239,4.221
	c-0.354,2.857-1.317,6.646-2.85,10.885c-2.286,6.381-5.798,13.725-9.618,21.122c-3.821,7.425-7.925,14.883-11.436,22.188
	c-9.446,19.694-19.796,38.95-31.022,57.672c-5.031,8.399-11.824,18.58-19.158,29.75c-11.009,16.794-23.264,35.823-33.056,55.896
	c-4.892,10.049-9.179,20.382-12.313,30.989c-3.123,10.604-5.115,21.516-5.123,32.673c-0.001,7.366,0.889,14.84,2.95,22.195
	c3.063,11.035,8.877,21.708,17.343,30.895c8.46,9.22,19.392,16.975,32.673,23.345c6.877,3.284,13.845,5.789,20.533,8.305
	c10.009,3.7,19.341,7.524,25.335,11.639c3.016,2.035,5.158,4.033,6.569,5.886c1.41,1.886,2.229,3.561,2.768,6.005
	c0.204,0.974,0.281,1.813,0.283,2.659c-0.005,1.462-0.242,2.996-0.875,5.016c-0.927,3.007-2.891,6.986-5.555,11.855
	c-2.628,4.884-5.928,10.635-8.682,17.757c-2.491,6.445-3.8,13.055-3.786,19.387c-0.008,5.377,0.928,10.426,2.29,14.806
	c2.065,6.603,4.878,11.733,7.258,16.132c2.417,4.402,4.481,8.111,6,11.743c0.504,1.265,0.607,1.925,0.634,3.218
	c0.034,1.713-0.509,4.711-1.647,9.301c-1.059,4.558-2.715,10.709-2.751,18.585c-0.025,5.644,1.021,12.135,3.672,18.418
	c2.787,6.678,6.307,12.149,9.571,16.679c4.957,6.784,9.175,11.681,11.425,15.491c1.155,1.904,1.886,3.478,2.37,5.004
	c0.475,1.536,0.755,3.059,0.765,5.209l-0.031,1.173c-0.176,3.464-0.823,7.149-1.871,11.249c-1.553,6.156-4.077,13.169-6.477,21.337
	c-2.367,8.151-4.602,17.601-4.61,28.381c-0.001,1.027,0.02,2.091,0.068,3.19c1.018,23.481,9.523,45.852,23.206,64.245
	c8.276,11.113,18.172,20.223,28.996,27.439c16.261,10.844,34.466,17.476,53.144,21.457c18.701,3.974,37.972,5.334,56.934,5.34
	c33.968-0.014,67.138-4.397,93.413-7.292c44.932-4.977,89.331-12.382,133.058-23.074c3.769,29.597,5.477,59.757,5.476,90.117
	c0.001,53.332-5.158,107.245-13.031,159.622c-1.638,10.899,5.87,21.063,16.769,22.701c10.9,1.638,21.063-5.87,22.701-16.77
	c8.084-53.819,13.47-109.653,13.472-165.553c0-33.64-1.975-67.303-6.491-100.561c26.333-7.753,52.399-16.822,78.163-27.443
	c39.922-16.458,78.576-35.967,115.538-58.273c9.436-5.694,12.469-17.96,6.774-27.397
	C1044.31,1519.971,1032.044,1516.938,1022.609,1522.632z"/>
<path d="M891.438,458.402c-0.309-2.791-2.174-5.135-4.822-6.065l-67.949-23.857c-3.792-1.331-7.945,0.664-9.277,4.456
	c-1.332,3.793,0.664,7.945,4.456,9.277h0l53.662,18.841l-47.324,29.564c-3.409,2.13-4.446,6.62-2.316,10.028
	c2.13,3.409,6.619,4.445,10.029,2.315l60.165-37.586C890.442,463.888,891.747,461.193,891.438,458.402z"/>
<path d="M1017.654,448.961l67.637,21.399c3.832,1.212,7.921-0.911,9.133-4.743c1.212-3.832-0.911-7.921-4.743-9.134l-53.202-16.832
	l47.27-31.625c3.341-2.235,4.236-6.754,2.002-10.095c-2.235-3.34-6.754-4.237-10.094-2.002h-0.001l-59.854,40.044
	c-2.333,1.561-3.554,4.296-3.158,7.076C1013.042,445.829,1014.977,448.114,1017.654,448.961z"/>
<path d="M894.543,540.687c-15.13,13.955-24.623,32.33-24.629,52.073c0,2.561,0.161,5.139,0.489,7.721
	c0.505,3.988,4.147,6.811,8.134,6.306c3.987-0.505,6.811-4.147,6.306-8.135h-0.001c-0.25-1.976-0.373-3.94-0.373-5.892
	c-0.006-14.95,7.199-29.584,19.95-41.381c12.723-11.765,30.883-20.44,51.812-23.082c4.42-0.56,8.786-0.831,13.068-0.831
	c19.461-0.009,37.184,5.61,50.264,14.832c13.106,9.26,21.496,21.831,23.344,36.333c0.505,3.987,4.147,6.81,8.135,6.305
	c3.987-0.505,6.81-4.147,6.305-8.135c-2.412-19.113-13.588-35.305-29.406-46.405c-15.844-11.138-36.404-17.475-58.642-17.484
	c-4.894,0-9.872,0.309-14.897,0.945C930.602,516.88,909.7,526.701,894.543,540.687z"/>
<path d="M1485.024,867.766c21.626-0.007,41.894-5.494,58.255-15.706c16.339-10.181,28.806-25.309,33.941-44.036
	c1.226-4.46-1.395-9.068-5.855-10.294c-4.459-1.226-9.068,1.396-10.293,5.855h0c-3.927,14.235-13.314,25.9-26.667,34.273
	c-13.331,8.342-30.593,13.168-49.38,13.161c-9.999,0-20.421-1.359-30.9-4.241c-21.655-5.945-39.771-17.379-52.316-31.317
	c-12.568-13.957-19.471-30.254-19.458-46.116c0-4.813,0.626-9.606,1.933-14.355c1.227-4.459-1.393-9.069-5.852-10.296
	s-9.068,1.392-10.295,5.851c-1.713,6.218-2.534,12.53-2.533,18.8c0.012,20.769,8.935,40.866,23.762,57.325
	c14.85,16.477,35.697,29.482,60.321,36.258C1461.601,866.203,1473.509,867.766,1485.024,867.766z"/>
<path d="M1375.365,644.814c7.112-5.207,15.971-8.187,25.272-8.185c3.873,0,7.826,0.514,11.786,1.602
	c19.229,5.274,31.736,22.32,31.717,40.305c0,3.456-0.456,6.958-1.417,10.46c-1.225,4.46,1.399,9.068,5.86,10.293
	c4.46,1.224,9.068-1.399,10.293-5.86c1.359-4.952,2.014-9.959,2.013-14.893c-0.019-25.734-17.644-49.189-44.027-56.455
	c-5.411-1.487-10.867-2.201-16.224-2.201c-12.876,0.002-25.172,4.107-35.163,11.417c-9.989,7.299-17.695,17.884-21.193,30.634
	c-1.226,4.46,1.395,9.069,5.855,10.294c4.46,1.226,9.069-1.396,10.295-5.856h0C1362.904,657.394,1368.251,650.031,1375.365,644.814z
	"/>
<path d="M1538.678,724.055c4.46,1.226,9.069-1.396,10.294-5.855l0,0c2.473-8.976,7.82-16.339,14.935-21.556
	c7.112-5.207,15.971-8.187,25.272-8.185c3.873,0,7.826,0.514,11.784,1.602c19.231,5.274,31.738,22.319,31.719,40.304
	c0,3.457-0.456,6.959-1.417,10.46c-1.225,4.46,1.397,9.068,5.857,10.293c4.46,1.225,9.069-1.398,10.294-5.858
	c1.359-4.953,2.015-9.961,2.015-14.895c-0.019-25.733-17.645-49.188-44.028-56.453c-5.411-1.488-10.866-2.201-16.223-2.201
	c-12.876,0.002-25.172,4.107-35.163,11.417c-9.989,7.299-17.695,17.884-21.193,30.634
	C1531.597,718.22,1534.218,722.829,1538.678,724.055z"/>
<ellipse transform="matrix(0.0991 -0.9951 0.9951 0.0991 -157.5682 1704.5021)" cx="862.53" cy="939.268" rx="27.401" ry="27.401"/>
<ellipse transform="matrix(0.9732 -0.2298 0.2298 0.9732 -187.5954 267.3635)" cx="1054.335" cy="939.268" rx="27.401" ry="27.401"/>
<path d="M957.239,1075.873c24.183,0,45.79,10.017,60.385,26.043c22.609-16.742,37.205-42.928,37.492-72.262H859.363
	c0.43,29.333,15.026,55.52,37.492,72.262C911.449,1085.89,933.056,1075.873,957.239,1075.873z"/>
<path style="fill:#EA4F51;" d="M896.855,1101.916c16.741,12.592,37.632,20.034,60.384,20.034c22.752,0,43.644-7.441,60.385-20.034
	c-14.595-16.026-36.202-26.043-60.385-26.043C933.056,1075.873,911.449,1085.89,896.855,1101.916z"/>
</svg>
